HIERARCHY
ROOT Hips
{
	OFFSET 0.000000 0.000000 0.000000 
	CHANNELS 6 Xposition Yposition Zposition Zrotation Yrotation Xrotation
	JOINT LeftUpLeg
	{
		OFFSET 1.363060 -1.794630 0.839290 
		CHANNELS 3 Zrotation Yrotation Xrotation
		JOINT LeftLeg
		{
			OFFSET 2.448110 -6.726130 0.000000 
			CHANNELS 3 Zrotation Yrotation Xrotation
			JOINT LeftFoot
			{
				OFFSET 2.562200 -7.039590 0.000000 
				CHANNELS 3 Zrotation Yrotation Xrotation
				JOINT LeftToeBase
				{
					OFFSET 0.157640 -0.433110 2.322550 
					CHANNELS 3 Zrotation Yrotation Xrotation
					End Site
					{
						OFFSET 0.000000 0.000000 0.000000 
					}
				}
			}
		}
	}
	JOINT RightUpLeg
	{
		OFFSET -1.305520 -1.794630 0.839290 
		CHANNELS 3 Zrotation Yrotation Xrotation
		JOINT RightLeg
		{
			OFFSET -2.542530 -6.985550 0.000000 
			CHANNELS 3 Zrotation Yrotation Xrotation
			JOINT RightFoot
			{
				OFFSET -2.568260 -7.056230 0.000000 
				CHANNELS 3 Zrotation Yrotation Xrotation
				JOINT RightToeBase
				{
					OFFSET -0.164730 -0.452590 2.363150 
					CHANNELS 3 Zrotation Yrotation Xrotation
					End Site
					{
						OFFSET 0.000000 0.000000 0.000000 
					}
				}
			}
		}
	}
	JOINT Spine
	{
		OFFSET 0.028270 2.035590 -0.193380 
		CHANNELS 3 Zrotation Yrotation Xrotation
		JOINT Spine1
		{
			OFFSET 0.056720 2.048850 -0.042750 
			CHANNELS 3 Zrotation Yrotation Xrotation
			JOINT Neck1
			{
				OFFSET -0.054170 1.746240 0.172020 
				CHANNELS 3 Zrotation Yrotation Xrotation
				JOINT Head
				{
					OFFSET 0.104070 1.761360 -0.123970 
					CHANNELS 3 Zrotation Yrotation Xrotation
					End Site
					{
						OFFSET 0.000000 0.000000 0.000000 
					}
				}
			}
			JOINT LeftArm
			{
				OFFSET 3.362410 1.200890 -0.311210 
				CHANNELS 3 Zrotation Yrotation Xrotation
				JOINT LeftForeArm
				{
					OFFSET 4.983000 -0.000000 -0.000000 
					CHANNELS 3 Zrotation Yrotation Xrotation
					JOINT LeftHand
					{
						OFFSET 3.483560 -0.000000 -0.000000 
						CHANNELS 3 Zrotation Yrotation Xrotation
						JOINT LeftHandIndex1
						{
							OFFSET 0.715260 -0.000000 -0.000000 
							CHANNELS 3 Zrotation Yrotation Xrotation
							End Site
							{
								OFFSET 0.000000 0.000000 0.000000 
							}
						}
					}
				}
			}
			JOINT RightArm
			{
				OFFSET -3.136600 1.374050 -0.404650 
				CHANNELS 3 Zrotation Yrotation Xrotation
				JOINT RightForeArm
				{
					OFFSET -5.241900 -0.000000 -0.000000 
					CHANNELS 3 Zrotation Yrotation Xrotation
					JOINT RightHand
					{
						OFFSET -3.444170 -0.000000 -0.000000 
						CHANNELS 3 Zrotation Yrotation Xrotation
						JOINT RightHandIndex1
						{
							OFFSET -0.622530 -0.000000 -0.000000 
							CHANNELS 3 Zrotation Yrotation Xrotation
							End Site
							{
								OFFSET 0.000000 0.000000 0.000000 
							}
						}
					}
				}
			}
		}
	}
}
MOTION
Frames: 6
Frame Time: 0.041667
48.053270 17.355052 -4.788510 -47.690311 85.437900 -21.767553 -19.751271 -1.758509 -30.322560 -0.452461 5.504810 13.518561 0.708137 -1.281162 3.681450 0.232700 -3.104700 -8.570400 19.365983 18.939030 -33.935881 -1.119439 -10.751954 26.652247 1.480112 -10.237247 -9.006525 -0.148700 -2.484700 6.847300 1.264902 -0.846003 -0.116089 -2.920768 -0.304375 -2.500293 5.958956 1.884586 -8.542169 0.152800 0.440400 -6.251500 -76.936876 -0.937492 28.678770 18.908509 -29.680467 -6.440759 -0.947514 -1.134648 -27.885982 -7.125000 0.000000 0.000000 76.668610 2.311100 30.834507 -14.163356 25.263439 -4.007224 1.169678 -0.135743 -0.307834 7.125000 0.000000 0.000000 
48.054097 17.355155 -4.789131 -47.773456 85.448800 -21.848750 -19.737169 -1.796086 -30.313361 -0.451563 5.508856 13.527775 0.705667 -1.264433 3.684087 0.224500 -3.050000 -8.417900 19.352780 18.968133 -33.922635 -1.119111 -10.750739 26.647697 1.489529 -10.283471 -9.036648 -0.150300 -2.498100 6.884400 1.263382 -0.848207 -0.114456 -2.930303 -0.305026 -2.499482 5.957210 1.895739 -8.559718 0.150400 0.444100 -6.268700 -76.924874 -0.964071 28.690696 18.913590 -29.683071 -6.441632 -0.948062 -1.128158 -27.892465 -7.125000 0.000000 0.000000 76.687121 2.319649 30.847595 -14.176252 25.278321 -4.012121 1.170884 -0.131497 -0.327623 7.125000 0.000000 0.000000 
48.056476 17.355155 -4.789751 -47.822125 85.438610 -21.903966 -19.740247 -1.763870 -30.307094 -0.452146 5.506579 13.524423 0.710022 -1.291566 3.692109 0.225500 -3.056400 -8.435800 19.368815 18.962367 -33.905589 -1.119813 -10.751703 26.653006 1.484020 -10.258338 -9.037071 -0.151000 -2.503700 6.899800 1.261697 -0.845072 -0.115672 -2.938841 -0.303329 -2.509247 5.958444 1.918512 -8.558490 0.152200 0.454600 -6.282200 -76.904771 -0.951734 28.696934 18.927926 -29.699634 -6.450146 -0.947094 -1.132294 -27.918071 -7.125000 0.000000 0.000000 76.692211 2.309181 30.891086 -14.185895 25.291480 -4.015221 1.171263 -0.128459 -0.352018 7.125000 0.000000 0.000000 
48.058027 17.355155 -4.790475 -47.856307 85.451996 -21.940382 -19.753761 -1.765340 -30.298963 -0.452452 5.505941 13.522641 0.710258 -1.294536 3.687028 0.229300 -3.082000 -8.507300 19.356235 18.964160 -33.900922 -1.120675 -10.752759 26.656768 1.486058 -10.267845 -9.041930 -0.149300 -2.490100 6.862200 1.260965 -0.850232 -0.116406 -2.946012 -0.305804 -2.503552 5.948518 1.922927 -8.538664 0.141600 0.455800 -6.268700 -76.899085 -0.955896 28.691626 18.957976 -29.729146 -6.465448 -0.945251 -1.132402 -27.917971 -7.125000 0.000000 0.000000 76.699257 2.316280 30.906250 -14.199170 25.305569 -4.019768 1.170716 -0.128023 -0.352362 7.125000 0.000000 0.000000 
48.059889 17.355155 -4.791096 -47.889045 85.457007 -21.976573 -19.758163 -1.767283 -30.286559 -0.452632 5.504781 13.520127 0.710404 -1.296006 3.683480 0.230100 -3.087300 -8.521900 19.352092 18.966634 -33.890694 -1.121446 -10.753755 26.660834 1.485438 -10.266236 -9.051385 -0.149300 -2.489700 6.861100 1.260341 -0.850116 -0.117418 -2.950527 -0.305847 -2.503442 5.940621 1.928038 -8.524839 0.135000 0.457800 -6.264200 -76.892720 -0.957079 28.694980 18.979989 -29.751359 -6.476784 -0.944146 -1.132831 -27.927506 -7.125000 0.000000 0.000000 76.703870 2.314636 30.925114 -14.212808 25.321150 -4.024733 1.170761 -0.126216 -0.362422 7.125000 0.000000 0.000000 
48.061751 17.355155 -4.791820 -47.920142 85.460403 -22.012388 -19.761355 -1.770920 -30.269976 -0.452855 5.502608 13.514765 0.709471 -1.291635 3.676192 0.231800 -3.099000 -8.554500 19.350183 18.967005 -33.879910 -1.122387 -10.755018 26.665966 1.484125 -10.260895 -9.060030 -0.148800 -2.486000 6.850900 1.259944 -0.847205 -0.118662 -2.954213 -0.304524 -2.502619 5.930973 1.927888 -8.505994 0.127800 0.457600 -6.255000 -76.888781 -0.957803 28.700766 19.003242 -29.774630 -6.488562 -0.942942 -1.133412 -27.935383 -7.125000 0.000000 0.000000 76.704566 2.311549 30.942571 -14.227231 25.337542 -4.030074 1.170661 -0.124824 -0.376459 7.125000 0.000000 0.000000 
